<svg xmlns="http://www.w3.org/2000/svg" width="335.598" height="64.619" viewBox="0 0 335.598 64.619"><defs><style>.a{fill:#3ac280;}.b{fill:#0a5169;}</style></defs><g transform="translate(-137 -30)"><g transform="translate(137 30)"><g transform="translate(0 0.815)"><path class="a" d="M923.214,49.418a6.511,6.511,0,1,1-6.525-6.561A6.544,6.544,0,0,1,923.214,49.418Zm-6.547,4.294a4.32,4.32,0,1,0-4.315-4.365A4.342,4.342,0,0,0,916.668,53.712Z" transform="translate(-884.573 -40.669)"/><path class="a" d="M923.214,106.081a6.511,6.511,0,1,1-6.525-6.561A6.545,6.545,0,0,1,923.214,106.081Zm-6.547,4.294a4.32,4.32,0,1,0-4.315-4.366A4.343,4.343,0,0,0,916.668,110.376Z" transform="translate(-884.573 -51.636)"/><path class="b" d="M936.744,86.151a10.281,10.281,0,0,1-.162-1.484,14.659,14.659,0,0,1,.381-3.686c.066-.294.128-.593.188-.892a8.686,8.686,0,0,0-.2-16.733,12.1,12.1,0,0,1-.368-2.492,14.631,14.631,0,0,1,.374-3.649,8.692,8.692,0,1,0-11-8.39,8.587,8.587,0,0,0,.516,2.92l-.019.022c-.934,1.144-1.825,2.285-2.752,3.43a34.782,34.782,0,0,1-4.557,4.691q-1.791,1.512-3.58,2.982c-.363.3-.718.606-1.068.919a8.686,8.686,0,0,0-7.258-.006c-.419-.374-.845-.744-1.291-1.1-1.094-.876-2.188-1.74-3.285-2.633a35.059,35.059,0,0,1-3.2-2.919c-.861-.9-1.657-1.81-2.417-2.725-.627-.756-1.244-1.513-1.871-2.269a8.7,8.7,0,1,0-16.754-3.311,8.735,8.735,0,0,0,6.42,8.391,14.673,14.673,0,0,1,.374,3.648,12.2,12.2,0,0,1-.373,2.51,8.692,8.692,0,0,0-.2,16.7c.061.306.124.61.192.91a14.741,14.741,0,0,1,.382,3.686,10.4,10.4,0,0,1-.165,1.5,8.708,8.708,0,1,0,4.325.025,10.6,10.6,0,0,1-.169-1.527,14.713,14.713,0,0,1,.382-3.686c.069-.31.136-.624.2-.94a8.69,8.69,0,0,0-.2-16.641,12.223,12.223,0,0,1-.379-2.536,14.705,14.705,0,0,1,.382-3.686v-.006a8.688,8.688,0,0,0,2.428-1.151c.965.779,1.929,1.54,2.9,2.323a34.73,34.73,0,0,1,4.692,4.557q1.511,1.789,2.982,3.579c.24.294.488.581.739.865a8.7,8.7,0,1,0,16.241,4.494,8.63,8.63,0,0,0-1.166-4.486c.324-.369.648-.735.959-1.124.877-1.1,1.741-2.189,2.633-3.285a35.118,35.118,0,0,1,2.92-3.2c.9-.86,1.809-1.657,2.724-2.417.618-.512,1.235-1.015,1.852-1.523a8.692,8.692,0,0,0,2.716,1.365v.006a14.691,14.691,0,0,1,.381,3.686,12.276,12.276,0,0,1-.383,2.553,8.7,8.7,0,0,0-.2,16.6c.064.323.132.646.2.964a14.7,14.7,0,0,1,.381,3.686,10.339,10.339,0,0,1-.171,1.544,8.707,8.707,0,1,0,4.325-.06ZM887.217,85.9h-.006V80.443h.006Zm0-22.848h-.006V57.529h.006Zm47.366-5.522h0v5.525h0Zm0,22.911h0V85.9h0Z" transform="translate(-878.424 -40.144)"/></g><g transform="translate(97.078)"><path class="a" d="M773.537,193.153l.024-31.424a2.083,2.083,0,0,1,2.358-2.356l2,0a2.084,2.084,0,0,1,2.355,2.36l0,3.213-.216,2.071h.143a14.321,14.321,0,0,1,4.969-5.923,12.68,12.68,0,0,1,7.608-2.566q8.926.007,10.849,8.223h.142a14.584,14.584,0,0,1,5.076-5.781,13.233,13.233,0,0,1,7.714-2.423q6.142,0,9.032,3.436t2.884,10.428l-.015,20.782a2.083,2.083,0,0,1-2.358,2.356l-2.214,0a2.084,2.084,0,0,1-2.356-2.359l.014-19.282a13.936,13.936,0,0,0-1.314-6.715q-1.322-2.358-5.035-2.361A9.092,9.092,0,0,0,807.443,169a16.3,16.3,0,0,0-2.971,9.676l-.011,14.5a2.052,2.052,0,0,1-2.287,2.355l-2.285,0a2.052,2.052,0,0,1-2.284-2.359l.014-19.282a14.632,14.632,0,0,0-1.244-6.678q-1.249-2.394-5.033-2.4a9.228,9.228,0,0,0-7.859,4.208,16.211,16.211,0,0,0-3.006,9.64l-.012,14.5a2.082,2.082,0,0,1-2.358,2.355l-2.215,0A2.083,2.083,0,0,1,773.537,193.153Z" transform="translate(-773.537 -145.224)"/><path class="a" d="M849.586,207.493l.035-45.707a2.082,2.082,0,0,1,2.358-2.356h1.643q2.357,0,2.355,2l0,2.143-.144,1.927h.143q.144-.284.394-.75a11.45,11.45,0,0,1,1.287-1.642,14.761,14.761,0,0,1,2.287-2.1,12.727,12.727,0,0,1,3.429-1.675,14.5,14.5,0,0,1,4.75-.747,14.225,14.225,0,0,1,11.53,5.223q4.317,5.217,4.31,13.715t-4.617,13.709a14.978,14.978,0,0,1-11.752,5.2,13.248,13.248,0,0,1-4.284-.681,11.228,11.228,0,0,1-3.214-1.61,18.377,18.377,0,0,1-2.1-1.858,8.174,8.174,0,0,1-1.249-1.573l-.356-.715h-.143a19.543,19.543,0,0,1,.212,3.143l-.011,14.354a2.052,2.052,0,0,1-2.287,2.356l-2.214,0A2.083,2.083,0,0,1,849.586,207.493Zm6.736-29.848a14.942,14.942,0,0,0,2.743,8.965,8.719,8.719,0,0,0,7.461,3.827,9.442,9.442,0,0,0,7.43-3.458q3-3.461,3.006-9.39.005-5.855-2.814-9.394a9.005,9.005,0,0,0-7.389-3.541,9.7,9.7,0,0,0-7.43,3.244Q856.327,171.148,856.322,177.646Z" transform="translate(-788.256 -145.235)"/><path class="a" d="M894.451,185.745a9.98,9.98,0,0,1,1.575-5.606,10.913,10.913,0,0,1,3.824-3.639,21.321,21.321,0,0,1,5.394-2,38.976,38.976,0,0,1,5.607-.959q2.463-.214,5.177-.211h1.857v-.928q.006-7.928-7.851-7.933a16.505,16.505,0,0,0-8.143,2.279,2.218,2.218,0,0,1-3.214-.859l-.57-1q-1.141-2.142.788-3.213a23.41,23.41,0,0,1,11.714-3.062q6.785.006,10.5,3.651t3.706,10.5l-.015,20.5a2.084,2.084,0,0,1-2.358,2.356l-1.785,0a2.084,2.084,0,0,1-2.356-2.359l0-2.142.216-2.214h-.143q-.144.285-.429.82a14.407,14.407,0,0,1-1.323,1.82,15.724,15.724,0,0,1-2.251,2.284,13.087,13.087,0,0,1-7.786,2.637,13.077,13.077,0,0,1-8.568-2.935A9.555,9.555,0,0,1,894.451,185.745Zm7-.566a5.449,5.449,0,0,0,1.782,4.072,6.818,6.818,0,0,0,4.926,1.718A8.507,8.507,0,0,0,915.2,187.4a12.7,12.7,0,0,0,2.755-7.926V177.9H916.1Q901.455,177.892,901.451,185.178Z" transform="translate(-796.939 -145.241)"/><path class="a" d="M939.954,193.414l.023-31.424a2.083,2.083,0,0,1,2.358-2.356l2,0A2.084,2.084,0,0,1,946.691,162l0,4.142-.217,2.714h.143a15.817,15.817,0,0,1,4.255-6.71,9.666,9.666,0,0,1,6.822-2.781,2.053,2.053,0,0,1,2.284,2.359l0,2q0,2.356-2.572,2.356a8.632,8.632,0,0,0-7.753,4.456,19.272,19.272,0,0,0-2.757,10.319l-.01,12.569a2.083,2.083,0,0,1-2.358,2.355l-2.215,0A2.083,2.083,0,0,1,939.954,193.414Z" transform="translate(-805.746 -145.385)"/><path class="a" d="M970.751,180.481l.013-17.14-2.5,0a2.052,2.052,0,0,1-2.284-2.359v-.928a2.083,2.083,0,0,1,2.359-2.355l2.572,0,.006-7.927a2.083,2.083,0,0,1,2.358-2.356l2.072,0a2.083,2.083,0,0,1,2.355,2.359L977.7,157.7l6.285,0a2.083,2.083,0,0,1,2.355,2.358V161a2.054,2.054,0,0,1-2.288,2.356l-6.355,0-.012,16.069q-.006,7.571,6.849,8.147a3.45,3.45,0,0,1,1.964.644,2.281,2.281,0,0,1,.534,1.715v1.5q0,2.358-2.859,2.355a13.927,13.927,0,0,1-9.6-3.4Q970.747,186.982,970.751,180.481Z" transform="translate(-810.783 -143.073)"/><path class="a" d="M997.865,149.1a2.083,2.083,0,0,1-2.355-2.358l0-2.357a2.084,2.084,0,0,1,2.359-2.356l2.428,0a2.084,2.084,0,0,1,2.355,2.359l0,2.357a2.083,2.083,0,0,1-2.359,2.355Zm-2.316,40.992.023-31.424a2.083,2.083,0,0,1,2.358-2.356l2.214,0a2.083,2.083,0,0,1,2.355,2.359l-.024,31.424a2.083,2.083,0,0,1-2.358,2.356l-2.215,0A2.083,2.083,0,0,1,995.549,190.094Z" transform="translate(-816.499 -142.031)"/><path class="a" d="M1008.946,185.831a9.983,9.983,0,0,1,1.575-5.606,10.917,10.917,0,0,1,3.824-3.639,21.292,21.292,0,0,1,5.394-2,38.982,38.982,0,0,1,5.607-.959q2.463-.214,5.177-.211l1.857,0v-.928q.006-7.928-7.851-7.933a16.506,16.506,0,0,0-8.143,2.279,2.218,2.218,0,0,1-3.214-.859l-.57-1q-1.142-2.142.788-3.213a23.409,23.409,0,0,1,11.714-3.062q6.785.006,10.5,3.65t3.705,10.5l-.015,20.5a2.084,2.084,0,0,1-2.358,2.356l-1.785,0a2.083,2.083,0,0,1-2.355-2.359l0-2.142.215-2.214h-.143c-.1.19-.239.463-.429.82a14.4,14.4,0,0,1-1.323,1.82,15.719,15.719,0,0,1-2.252,2.284,13.079,13.079,0,0,1-7.786,2.636,13.073,13.073,0,0,1-8.568-2.935A9.557,9.557,0,0,1,1008.946,185.831Zm7-.566a5.449,5.449,0,0,0,1.782,4.072,6.822,6.822,0,0,0,4.926,1.718,8.5,8.5,0,0,0,7.038-3.566,12.692,12.692,0,0,0,2.756-7.925v-1.572h-1.857Q1015.951,177.978,1015.946,185.264Z" transform="translate(-819.099 -145.258)"/><path class="a" d="M1054.341,182.64l.029-38.209a2.083,2.083,0,0,1,2.358-2.356l2.214,0a2.084,2.084,0,0,1,2.355,2.359l-.028,37.351q0,4.5,3.282,4.789a1.87,1.87,0,0,1,1.855,2.072v1.714a2.147,2.147,0,0,1-2.431,2.427Q1054.333,192.781,1054.341,182.64Z" transform="translate(-827.885 -142.04)"/></g></g></g></svg>