<svg xmlns="http://www.w3.org/2000/svg" xmlns:xlink="http://www.w3.org/1999/xlink" width="12" height="12" viewBox="0 0 12 12"><defs><style>.a{fill:#fff;stroke:#707070;}.b{clip-path:url(#a);}</style><clipPath id="a"><rect class="a" width="12" height="12" transform="translate(1515 100.133)"/></clipPath></defs><g class="b" transform="translate(-1515 -100.133)"><g transform="translate(1515.51 100)"><g transform="translate(2.8 9.333)"><path d="M5.22,10.769a1.4,1.4,0,1,0,1.4,1.4A1.375,1.375,0,0,0,5.22,10.769Zm0,2.053a.653.653,0,1,1,.653-.653A.638.638,0,0,1,5.22,12.823Z" transform="translate(-3.82 -10.769)"/></g><g transform="translate(7.467 9.333)"><path d="M10.6,10.769a1.4,1.4,0,1,0,1.4,1.4A1.375,1.375,0,0,0,10.6,10.769Zm0,2.053a.653.653,0,1,1,.653-.653A.638.638,0,0,1,10.6,12.823Z" transform="translate(-9.204 -10.769)"/></g><g transform="translate(0)"><path d="M11.229,1.867H3.249L2.456,0H.589V.933h1.26l1.96,4.76A1.44,1.44,0,0,0,2.922,7.14,1.456,1.456,0,0,0,4.369,8.4h6.487V7.467H4.322a.467.467,0,0,1,0-.933h6.16a.454.454,0,0,0,.467-.373L11.7,2.427A.492.492,0,0,0,11.229,1.867Z" transform="translate(-0.589)"/></g></g></g></svg>