<svg xmlns="http://www.w3.org/2000/svg" width="20" height="20" viewBox="0 0 20 20">
    <defs>
        <style>
            .cls-1{fill:#fff;stroke:#707070}.cls-2{clip-path:url(#clip-path)}.cls-3{fill:#4d4d4d}
        </style>
        <clipPath id="clip-path">
            <path id="Rectangle_86" d="M0 0h20v20H0z" class="cls-1" data-name="Rectangle 86" transform="translate(789 386)"/>
        </clipPath>
    </defs>
    <g id="checkbox" class="cls-2" transform="translate(-789 -386)">
        <g id="check-box-with-check-sign" transform="translate(789 386)">
            <path id="Path_58" d="M16.84 0H3.16A3.164 3.164 0 0 0 0 3.16v13.68A3.164 3.164 0 0 0 3.16 20h13.68A3.164 3.164 0 0 0 20 16.84V3.16A3.164 3.164 0 0 0 16.84 0zm1.053 16.84a1.055 1.055 0 0 1-1.053 1.053H3.16a1.055 1.055 0 0 1-1.053-1.053V3.16A1.055 1.055 0 0 1 3.16 2.107h13.68a1.055 1.055 0 0 1 1.053 1.053v13.68z" class="cls-3" data-name="Path 58"/>
            <path id="Path_59" d="M12.183 3.849a1.263 1.263 0 0 0-.9.373L6.577 8.936 5.323 7.682a1.272 1.272 0 0 0-1.8 1.8l2.154 2.154a1.271 1.271 0 0 0 1.8 0l5.605-5.616a1.272 1.272 0 0 0-.9-2.171z" class="cls-3" data-name="Path 59" transform="translate(1.697 2.072)"/>
        </g>
    </g>
</svg>
