<svg id="clock-circular-outline" xmlns="http://www.w3.org/2000/svg" width="12.846" height="12.846" viewBox="0 0 12.846 12.846">
  <g id="Group_17" data-name="Group 17">
    <path id="Path_33" data-name="Path 33" d="M6.423,0a6.423,6.423,0,1,0,6.423,6.423A6.43,6.43,0,0,0,6.423,0Zm0,11.48A5.056,5.056,0,1,1,11.48,6.423,5.062,5.062,0,0,1,6.423,11.48Z" fill="#9299ac"/>
    <path id="Path_34" data-name="Path 34" d="M48.01,20.83H45.124V17.359a.529.529,0,1,0-1.058,0v4a.529.529,0,0,0,.529.529H48.01a.529.529,0,1,0,0-1.058Z" transform="translate(-38.24 -14.605)" fill="#9299ac"/>
  </g>
</svg>
