<svg xmlns="http://www.w3.org/2000/svg" xmlns:xlink="http://www.w3.org/1999/xlink" width="15" height="15" viewBox="0 0 15 15">
  <defs>
    <clipPath id="clip-path">
      <rect id="Rectangle_7" data-name="Rectangle 7" width="15" height="15" rx="1" transform="translate(56 160)" fill="#fcb400"/>
    </clipPath>
  </defs>
  <g id="contact_support" data-name="contact support" transform="translate(-56 -160)">
    <g id="Mask_Group_74" data-name="Mask Group 74" clip-path="url(#clip-path)">
      <g id="support" transform="translate(56 160)">
        <path id="Path_259" data-name="Path 259" d="M7.5,0A5.742,5.742,0,0,0,1.765,5.735v5.294a1.324,1.324,0,1,0,2.647,0V6.618A1.325,1.325,0,0,0,3.088,5.294a1.309,1.309,0,0,0-.423.075,4.848,4.848,0,0,1,9.669,0,1.3,1.3,0,0,0-.422-.072,1.325,1.325,0,0,0-1.324,1.324v4.412a1.325,1.325,0,0,0,1.324,1.324,1.308,1.308,0,0,0,.441-.081v.522a.442.442,0,0,1-.441.441H8.742a1.324,1.324,0,1,0,0,.882h3.17a1.325,1.325,0,0,0,1.324-1.324V5.735A5.742,5.742,0,0,0,7.5,0Zm0,0" fill="#4d4d4d"/>
        <path id="Path_260" data-name="Path 260" d="M14.118,6.258v5.132A1.321,1.321,0,0,0,15,10.147V7.5a1.322,1.322,0,0,0-.882-1.242Zm0,0" fill="#4d4d4d"/>
        <path id="Path_261" data-name="Path 261" d="M0,7.5v2.647a1.321,1.321,0,0,0,.882,1.242V6.258A1.322,1.322,0,0,0,0,7.5Zm0,0" fill="#4d4d4d"/>
      </g>
    </g>
  </g>
</svg>
