<svg xmlns="http://www.w3.org/2000/svg" xmlns:xlink="http://www.w3.org/1999/xlink" width="15" height="15" viewBox="0 0 15 15">
  <defs>
    <clipPath id="clip-path">
      <rect id="Rectangle_56" data-name="Rectangle 56" width="15" height="15" transform="translate(517 173)" fill="#fff"/>
    </clipPath>
  </defs>
  <g id="delete" transform="translate(-517 -173)" clip-path="url(#clip-path)">
    <g id="delete-2" data-name="delete" transform="translate(518.78 173)">
      <path id="Path_39" data-name="Path 39" d="M3.287,1.364a.768.768,0,0,1,.8-.774H7.356a.768.768,0,0,1,.8.774v.848h.59V1.364A1.358,1.358,0,0,0,7.356,0H4.084A1.359,1.359,0,0,0,2.7,1.364v.848h.59Zm0,0" fill="#4d4d4d"/>
      <path id="Path_40" data-name="Path 40" d="M2.233,15H9.206A1.256,1.256,0,0,0,10.4,13.673V4.57H1.039v9.1A1.256,1.256,0,0,0,2.233,15ZM7.6,5.978a.295.295,0,1,1,.59,0v6.966a.295.295,0,0,1-.59,0Zm-2.174,0a.295.295,0,0,1,.59,0v6.966a.295.295,0,0,1-.59,0Zm-2.174,0a.295.295,0,1,1,.59,0v6.966a.295.295,0,0,1-.59,0Zm0,0" fill="#4d4d4d"/>
      <path id="Path_41" data-name="Path 41" d="M.737,3.98H10.7a.737.737,0,0,0,0-1.474H.737a.737.737,0,1,0,0,1.474Zm0,0" fill="#4d4d4d"/>
    </g>
  </g>
</svg>
