<svg xmlns="http://www.w3.org/2000/svg" width="14.783" height="14.708" viewBox="0 0 14.783 14.708">
    <defs>
        <style>
            .cls-1{fill:#cc2727}
        </style>
    </defs>
    <g id="edit" transform="translate(0 -.261)">
        <path id="Path_284" d="M13.644 46.97a.368.368 0 0 0-.368.368v3.269a1.106 1.106 0 0 1-1.1 1.1H1.841a1.106 1.106 0 0 1-1.1-1.1v-9.594a1.106 1.106 0 0 1 1.1-1.1H5.11a.368.368 0 1 0 0-.736H1.841A1.843 1.843 0 0 0 0 41.013v9.594a1.843 1.843 0 0 0 1.841 1.841h10.33a1.843 1.843 0 0 0 1.841-1.841v-3.269a.368.368 0 0 0-.368-.368zm0 0" class="cls-1" data-name="Path 284" transform="translate(0 -37.479)"/>
        <path id="Path_285" d="M118.073.746a1.657 1.657 0 0 0-2.343 0l-6.568 6.568a.368.368 0 0 0-.094.162l-.864 3.118a.368.368 0 0 0 .453.453l3.118-.864a.368.368 0 0 0 .162-.094l6.568-6.568a1.659 1.659 0 0 0 0-2.343zm-8.109 6.808l5.376-5.376 1.734 1.734-5.374 5.375zm-.346.695L111 9.634l-1.916.531zM117.985 3l-.39.39-1.735-1.733.391-.39a.92.92 0 0 1 1.3 0l.432.432A.922.922 0 0 1 117.985 3zm0 0" class="cls-1" data-name="Path 285" transform="translate(-104.207)"/>
    </g>
</svg>
