<svg width="32" height="32" xmlns="http://www.w3.org/2000/svg">
 <g>
  <title>background</title>
  <rect x="-1" y="-1" width="34" height="34" id="canvas_background" fill="none"/>
 </g>

 <g>
  <title>Layer 1</title>
  <g id="Kanban">
   <rect id="Rectangle_7" width="32" height="32" rx="2" fill="#d54949"/>
   <g stroke="null" id="svg_8">
    <path stroke="null" id="svg_5" d="m27.125129,12.401343l-10.978839,-5.478448c-0.095087,-0.043886 -0.197487,-0.043886 -0.292574,0l-10.986154,5.478448c-0.124344,0.058515 -0.197487,0.175544 -0.197487,0.314517l0,2.165048c0,0.11703 0.058515,0.226745 0.160916,0.292574c0.102401,0.065829 0.226745,0.073143 0.329146,0.021943l10.839867,-5.412619l10.832552,5.412619c0.043886,0.021943 0.095087,0.036572 0.146287,0.036572c0.065829,0 0.131658,-0.014629 0.182859,-0.0512c0.102401,-0.065829 0.160916,-0.175544 0.160916,-0.292574l0,-2.179676c0,-0.131658 -0.073143,-0.256002 -0.197487,-0.307203z" fill="#FFF"/>
    <path stroke="null" id="svg_6" d="m25.106369,15.253939l-9.106366,-4.534897l-9.106366,4.534897l0,8.411502l5.046901,0l0,-6.451257l3.474316,0l0,6.451257l9.691514,0l0,-8.411502z" fill="#FFF"/>
    <path stroke="null" id="svg_7" d="m16.563208,17.214185l2.340592,0l0,2.340592l-2.340592,0l0,-2.340592z" fill="#EA4949"/>
   </g>
  </g>
 </g>
</svg>