<svg xmlns="http://www.w3.org/2000/svg" width="30.013" height="30.013" viewBox="0 0 30.013 30.013"><defs><style>.a{fill:#0a5169;}</style></defs><path class="a" d="M15.007,0A15.007,15.007,0,1,0,30.013,15.007,15.023,15.023,0,0,0,15.007,0Zm0,28.763A13.756,13.756,0,1,1,28.763,15.007,13.772,13.772,0,0,1,15.007,28.763Z"/><path class="a" d="M178.612,128.183a.625.625,0,0,0-.884,0l-6.878,6.878a.625.625,0,0,0,0,.884l6.878,6.878a.625.625,0,0,0,.884-.884l-6.436-6.436,6.436-6.436A.625.625,0,0,0,178.612,128.183Z" transform="translate(-160.662 -120.496)"/></svg>