<svg xmlns="http://www.w3.org/2000/svg" xmlns:xlink="http://www.w3.org/1999/xlink" width="12" height="12" viewBox="0 0 12 12"><defs><style>.a{fill:#fff;stroke:#707070;}.b{clip-path:url(#a);}</style><clipPath id="a"><rect class="a" width="12" height="12" transform="translate(1515 131.809)"/></clipPath></defs><g class="b" transform="translate(-1515 -131.809)"><g transform="translate(1515.267 132)"><g transform="translate(0)"><path d="M5.907,11.809a5.9,5.9,0,1,1,4.954-9.095c.124.195.235.4.341.6a.576.576,0,1,1-1.025.524,4.789,4.789,0,0,0-1.13-1.492A4.5,4.5,0,0,0,6.32,1.183,4.592,4.592,0,0,0,1.752,3.615a4.683,4.683,0,0,0,.886,5.724,4.664,4.664,0,0,0,2.548,1.251,4.74,4.74,0,0,0,4.944-2.552.683.683,0,0,1,.37-.382.579.579,0,0,1,.716.8,5.911,5.911,0,0,1-4.521,3.283C6.433,11.778,6.169,11.788,5.907,11.809Z" transform="translate(0.001 0)"/><path d="M7.644,7.127H4.417a.579.579,0,0,1-.5-.224.575.575,0,0,1,.446-.925c.3-.007.6,0,.895,0H7.636c-.038-.044-.06-.072-.084-.1-.25-.251-.505-.5-.751-.753a.576.576,0,1,1,.834-.8L8.73,5.425c.117.117.234.232.348.351a1.1,1.1,0,0,1,.01,1.533c-.482.5-.977.988-1.472,1.475a.574.574,0,1,1-.8-.823c.242-.244.486-.486.729-.73C7.572,7.207,7.6,7.179,7.644,7.127Z" transform="translate(-0.593 -0.648)"/></g></g></g></svg>