<svg xmlns="http://www.w3.org/2000/svg" xmlns:xlink="http://www.w3.org/1999/xlink" width="13" height="13" viewBox="0 0 13 13">
  <defs>
    <clipPath id="clip-path">
      <rect id="Rectangle_220" data-name="Rectangle 220" width="13" height="13" transform="translate(1233 334)" fill="#fff" stroke="#707070" stroke-width="1"/>
    </clipPath>
  </defs>
  <g id="Mail" transform="translate(-1233 -334)" clip-path="url(#clip-path)">
    <g id="email" transform="translate(1233 334)">
      <path id="Path_251" data-name="Path 251" d="M12.99,2.8c0-.015.01-.029.01-.044L9.033,6.579,13,10.28c0-.026,0-.053,0-.08V2.8Z" fill="#a6a6a6"/>
      <path id="Path_252" data-name="Path 252" d="M8.427,7.167,6.808,8.726a.424.424,0,0,1-.582,0L4.61,7.225.622,11.069a.919.919,0,0,0,.31.062H12.1a.918.918,0,0,0,.446-.123Z" fill="#a6a6a6"/>
      <path id="Path_253" data-name="Path 253" d="M6.509,7.837,12.564,2a.918.918,0,0,0-.468-.136H.932a.92.92,0,0,0-.586.218Z" fill="#a6a6a6"/>
      <path id="Path_254" data-name="Path 254" d="M0,2.943V10.2a.921.921,0,0,0,.04.24L3.979,6.647Z" fill="#a6a6a6"/>
    </g>
  </g>
</svg>
