<svg xmlns="http://www.w3.org/2000/svg" width="12.271" height="14.726" viewBox="0 0 12.271 14.726">
  <g id="notification_1_" data-name="notification (1)" transform="translate(-42.675)">
    <g id="Group_5" data-name="Group 5" transform="translate(42.675)">
      <g id="Group_4" data-name="Group 4" transform="translate(0)">
        <path id="Path_10" data-name="Path 10" d="M54.9,12.421l-1.053-1.756a5.216,5.216,0,0,1-.744-2.684V6.442a4.3,4.3,0,0,0-3.068-4.114v-1.1a1.227,1.227,0,0,0-2.454,0v1.1a4.3,4.3,0,0,0-3.068,4.114V7.981a5.219,5.219,0,0,1-.743,2.683L42.719,12.42a.307.307,0,0,0,.263.465H54.639a.307.307,0,0,0,.263-.464Z" transform="translate(-42.675)" fill="#fff"/>
      </g>
    </g>
    <g id="Group_7" data-name="Group 7" transform="translate(46.878 13.499)">
      <g id="Group_6" data-name="Group 6" transform="translate(0)">
        <path id="Path_11" data-name="Path 11" d="M188.815,469.333a2.135,2.135,0,0,0,3.864,0Z" transform="translate(-188.815 -469.333)" fill="#fff"/>
      </g>
    </g>
  </g>
</svg>
