<svg xmlns="http://www.w3.org/2000/svg" width="6.022" height="7.227" viewBox="0 0 6.022 7.227">
  <g id="notification" transform="translate(-42.675)">
    <g id="Group_5" data-name="Group 5" transform="translate(42.675)">
      <g id="Group_4" data-name="Group 4" transform="translate(0)">
        <path id="Path_10" data-name="Path 10" d="M48.676,6.1l-.517-.862a2.56,2.56,0,0,1-.365-1.317V3.162a2.11,2.11,0,0,0-1.506-2.019V.6a.6.6,0,0,0-1.2,0v.54a2.11,2.11,0,0,0-1.506,2.019v.755a2.561,2.561,0,0,1-.365,1.317L42.7,6.1a.151.151,0,0,0,.129.228h5.721a.151.151,0,0,0,.129-.228Z" transform="translate(-42.675)" fill="#fff"/>
      </g>
    </g>
    <g id="Group_7" data-name="Group 7" transform="translate(44.738 6.624)">
      <g id="Group_6" data-name="Group 6" transform="translate(0)">
        <path id="Path_11" data-name="Path 11" d="M188.815,469.333a1.048,1.048,0,0,0,1.9,0Z" transform="translate(-188.815 -469.333)" fill="#fff"/>
      </g>
    </g>
  </g>
</svg>
