<svg xmlns="http://www.w3.org/2000/svg" width="11.758" height="14.11" viewBox="0 0 11.758 14.11">
  <g id="notification_Red" data-name="notification Red" transform="translate(-42.675)">
    <g id="Group_5" data-name="Group 5" transform="translate(42.675)">
      <g id="Group_4" data-name="Group 4" transform="translate(0)">
        <path id="Path_10" data-name="Path 10" d="M54.391,11.9l-1.009-1.683a5,5,0,0,1-.713-2.572V6.173a4.121,4.121,0,0,0-2.94-3.942V1.176a1.176,1.176,0,0,0-2.352,0V2.231a4.121,4.121,0,0,0-2.94,3.942V7.647a5,5,0,0,1-.712,2.571L42.717,11.9a.294.294,0,0,0,.252.446h11.17a.294.294,0,0,0,.252-.445Z" transform="translate(-42.675)" fill="#cc2727"/>
      </g>
    </g>
    <g id="Group_7" data-name="Group 7" transform="translate(46.703 12.934)">
      <g id="Group_6" data-name="Group 6" transform="translate(0)">
        <path id="Path_11" data-name="Path 11" d="M188.815,469.333a2.045,2.045,0,0,0,3.7,0Z" transform="translate(-188.815 -469.333)" fill="#cc2727"/>
      </g>
    </g>
  </g>
</svg>
