<svg xmlns="http://www.w3.org/2000/svg" xmlns:xlink="http://www.w3.org/1999/xlink" width="17" height="17" viewBox="0 0 17 17"><defs><style>.a{stroke:#707070;}.b{clip-path:url(#a);}</style><clipPath id="a"><rect class="a" width="17" height="17" transform="translate(49 117)"/></clipPath></defs><g class="b" transform="translate(-49 -117)"><g transform="translate(49 117)"><path d="M15.232,14.019l-.759-9.566a1.2,1.2,0,0,0-1.187-1.1h-1.5V3.286a3.286,3.286,0,0,0-6.572,0v.067h-1.5a1.2,1.2,0,0,0-1.187,1.1L1.768,14.02A2.768,2.768,0,0,0,4.528,17h7.943a2.768,2.768,0,0,0,2.76-2.981ZM6.21,3.286a2.29,2.29,0,0,1,4.581,0v.067H6.21Zm7.562,12.15a1.754,1.754,0,0,1-1.3.568H4.528A1.772,1.772,0,0,1,2.761,14.1l.759-9.569a.2.2,0,0,1,.194-.179h1.5V5.576a.5.5,0,0,0,1,0V4.349H10.79V5.576a.5.5,0,0,0,1,0V4.349h1.5a.2.2,0,0,1,.194.181l.759,9.566A1.754,1.754,0,0,1,13.772,15.436Z"/><path d="M10.743,8.443a.5.5,0,0,0-.7,0L7.816,10.666l-.855-.855a.5.5,0,0,0-.7.7l1.207,1.207a.5.5,0,0,0,.7,0l2.575-2.575A.5.5,0,0,0,10.743,8.443Z"/></g></g></svg>