<svg xmlns="http://www.w3.org/2000/svg" width="19.507" height="19.507" viewBox="0 0 19.507 19.507">
  <g id="Sign_Up_Requests_Red" data-name="Sign Up Requests Red" transform="translate(-0.001 0)">
    <path id="Path_297" data-name="Path 297" d="M338.541,217.469a.572.572,0,1,1-.572-.572A.572.572,0,0,1,338.541,217.469Zm0,0" transform="translate(-324.543 -208.635)" fill="#cc2727"/>
    <path id="Path_298" data-name="Path 298" d="M299.336,72.3a2.1,2.1,0,0,0-2.1,2.1h0a.572.572,0,1,0,1.143,0,.959.959,0,1,1,.959.96.572.572,0,0,0-.572.571v.612a.572.572,0,0,0,1.143,0v-.12a2.1,2.1,0,0,0-.572-4.125Zm0,0" transform="translate(-285.909 -69.547)" fill="#cc2727"/>
    <path id="Path_299" data-name="Path 299" d="M5.485,246.4a3.02,3.02,0,1,0-3.7,0A3.628,3.628,0,0,0,0,249.53v1.224a.571.571,0,0,0,.571.572H6.694a.572.572,0,0,0,.571-.572V249.53a3.628,3.628,0,0,0-1.78-3.126ZM1.756,244.02A1.877,1.877,0,1,1,3.633,245.9a1.879,1.879,0,0,1-1.877-1.877Zm4.366,6.162H1.144v-.653a2.489,2.489,0,0,1,4.978,0v.653Zm0,0" transform="translate(0 -231.819)" fill="#cc2727"/>
    <path id="Path_300" data-name="Path 300" d="M202.554,0h-7.346A2.407,2.407,0,0,0,192.8,2.408V13.426a.572.572,0,0,0,.914.457l2.3-1.722h6.543a2.407,2.407,0,0,0,2.408-2.408V2.407A2.407,2.407,0,0,0,202.554,0Zm1.265,9.754a1.264,1.264,0,0,1-1.265,1.265h-6.734a.572.572,0,0,0-.343.114l-1.534,1.151V2.408a1.264,1.264,0,0,1,1.265-1.265h7.346a1.264,1.264,0,0,1,1.265,1.265Zm0,0" transform="translate(-185.454)" fill="#cc2727"/>
  </g>
</svg>
