<svg width="32" height="32" xmlns="http://www.w3.org/2000/svg">
 <g>
  <title>background</title>
  <rect x="-1" y="-1" width="34" height="34" id="canvas_background" fill="none"/>
 </g>

 <g>
  <title>Layer 1</title>
  <g id="Kanban">
   <rect id="Rectangle_7" width="32" height="32" rx="2" fill="#d54949"/>
  </g>
  <g stroke="null" id="svg_22">
   <g stroke="null" transform="matrix(1.0768156166055425,0,0,1.0768156166055425,-16.681215693770355,40.02516702827961) " id="svg_16">
    <path stroke="null" fill="#ffffff" d="m34.210726,-24.381136a0.572,0.572 0 1 1 -0.572,-0.572a0.572,0.572 0 0 1 0.572,0.572zm0,0" id="svg_20"/>
    <path stroke="null" fill="#ffffff" d="m33.639729,-30.462138a2.1,2.1 0 0 0 -2.1,2.1l0,0a0.572,0.572 0 1 0 1.143,0a0.959,0.959 0 1 1 0.959,0.96a0.572,0.572 0 0 0 -0.572,0.571l0,0.612a0.572,0.572 0 0 0 1.143,0l0,-0.12a2.1,2.1 0 0 0 -0.572,-4.125l-0.001,0.002zm0.001,-0.002" id="svg_19"/>
    <path stroke="null" fill="#ffffff" d="m25.697726,-18.634142a3.02,3.02 0 1 0 -3.7,0a3.628,3.628 0 0 0 -1.785,3.13l0,1.224a0.571,0.571 0 0 0 0.571,0.572l6.123,0a0.572,0.572 0 0 0 0.571,-0.572l0,-1.224a3.628,3.628 0 0 0 -1.78,-3.126l0,-0.004zm-3.729,-2.38a1.877,1.877 0 1 1 1.877,1.88a1.879,1.879 0 0 1 -1.877,-1.877l0,-0.003zm4.366,6.165l-4.978,0l0,-0.653a2.489,2.489 0 0 1 4.978,0l0,0.653zm0,0" id="svg_18"/>
    <path stroke="null" fill="#ffffff" d="m37.312731,-33.215141l-7.346,0a2.407,2.407 0 0 0 -2.408,2.408l0,11.018a0.572,0.572 0 0 0 0.914,0.457l2.3,-1.722l6.543,0a2.407,2.407 0 0 0 2.408,-2.408l0,-7.346a2.407,2.407 0 0 0 -2.411,-2.407zm1.265,9.754a1.264,1.264 0 0 1 -1.265,1.265l-6.734,0a0.572,0.572 0 0 0 -0.343,0.114l-1.534,1.151l0,-9.876a1.264,1.264 0 0 1 1.265,-1.265l7.346,0a1.264,1.264 0 0 1 1.265,1.265l0,7.346zm0,0" id="svg_17"/>
   </g>
  </g>
 </g>
</svg>