<svg xmlns="http://www.w3.org/2000/svg" width="12.507" height="12" viewBox="0 0 12.507 12">
  <g id="speech-bubble-with-text-lines" transform="translate(0 -7.23)">
    <g id="Group_16" data-name="Group 16" transform="translate(0 7.23)">
      <path id="Path_30" data-name="Path 30" d="M10.314,7.23H2.193A2.2,2.2,0,0,0,0,9.423v5.009a2.2,2.2,0,0,0,2.193,2.193H7.366L9.842,19.1a.439.439,0,0,0,.749-.31V16.608a2.2,2.2,0,0,0,1.916-2.175V9.423A2.2,2.2,0,0,0,10.314,7.23Zm1.316,7.2a1.317,1.317,0,0,1-1.316,1.316h-.162a.439.439,0,0,0-.439.439v1.546L7.858,15.877a.438.438,0,0,0-.31-.128H2.193A1.317,1.317,0,0,1,.877,14.432V9.423A1.317,1.317,0,0,1,2.193,8.107h8.122A1.317,1.317,0,0,1,11.63,9.423Z" transform="translate(0 -7.23)" fill="#9299ac"/>
    </g>
  </g>
</svg>
