<svg xmlns="http://www.w3.org/2000/svg" id="prefix__checked" width="17.77" height="17.77" viewBox="0 0 17.77 17.77">
    <defs>
        <style>
            .prefix__cls-1{fill:#fff}
        </style>
    </defs>
    <g id="prefix__Group_322" data-name="Group 322" transform="translate(4.219 2.233)">
        <g id="prefix__Group_321" data-name="Group 321">
            <path id="prefix__Path_305" d="M134.61 64.524a.67.67 0 00-.947 0l-8.035 8.013-2.9-3.148a.67.67 0 10-.985.907l3.371 3.661a.669.669 0 00.478.216h.014a.67.67 0 00.473-.2l8.528-8.506a.67.67 0 00.003-.943z" class="prefix__cls-1" data-name="Path 305" transform="translate(-121.568 -64.327)"/>
        </g>
    </g>
    <g id="prefix__Group_324" data-name="Group 324">
        <g id="prefix__Group_323" data-name="Group 323">
            <path id="prefix__Path_306" d="M17.1 8.215a.67.67 0 00-.67.67 7.546 7.546 0 11-7.545-7.546.67.67 0 100-1.339 8.885 8.885 0 108.885 8.885.67.67 0 00-.67-.67z" class="prefix__cls-1" data-name="Path 306"/>
        </g>
    </g>
</svg>
