<svg xmlns="http://www.w3.org/2000/svg" width="24.508" height="19.913" viewBox="0 0 24.508 19.913"><defs><style>.a{fill:#9db9c3;}</style></defs><g transform="translate(0 0)"><path class="a" d="M24.508,50.357a10.475,10.475,0,0,1-2.895.793,5,5,0,0,0,2.21-2.777,10.041,10.041,0,0,1-3.186,1.216,5.024,5.024,0,0,0-8.691,3.436,5.174,5.174,0,0,0,.116,1.146A14.221,14.221,0,0,1,1.706,48.916,5.026,5.026,0,0,0,3.25,55.631a4.962,4.962,0,0,1-2.27-.619v.055A5.047,5.047,0,0,0,5.006,60a5.015,5.015,0,0,1-1.317.165,4.443,4.443,0,0,1-.951-.086,5.072,5.072,0,0,0,4.695,3.5A10.1,10.1,0,0,1,1.2,65.727,9.411,9.411,0,0,1,0,65.658a14.145,14.145,0,0,0,7.708,2.255,14.2,14.2,0,0,0,14.3-14.3c0-.222-.008-.437-.018-.649A10.023,10.023,0,0,0,24.508,50.357Z" transform="translate(0 -48)"/></g></svg>