<svg xmlns="http://www.w3.org/2000/svg" width="14.375" height="18.899" viewBox="0 0 14.375 18.899">
    <defs>
        <style>
            .prefix__cls-1{fill:#4d4d4d}
        </style>
    </defs>
    <g id="prefix__man-user" transform="translate(-41.895)">
        <path id="prefix__Path_264" d="M108.34 9.243c2.1 0 3.8-2.069 3.8-4.621S111.585 0 108.34 0s-3.8 2.069-3.8 4.621 1.699 4.622 3.8 4.622z" class="prefix__cls-1" data-name="Path 264" transform="translate(-59.257)"/>
        <path id="prefix__Path_265" d="M41.9 300.452c0-.156 0-.044 0 0z" class="prefix__cls-1" data-name="Path 265" transform="translate(0 -284.153)"/>
        <path id="prefix__Path_266" d="M308.085 301.628c0-.043 0-.3 0 0z" class="prefix__cls-1" data-name="Path 266" transform="translate(-251.816 -285.207)"/>
        <path id="prefix__Path_267" d="M56.273 184.255c-.07-4.446-.651-5.713-5.095-6.515a3.122 3.122 0 01-4.167 0c-4.4.793-5.011 2.041-5.092 6.371-.007.354-.01.372-.011.331v.467s1.058 2.133 7.186 2.133 7.186-2.133 7.186-2.133v-.346a2.86 2.86 0 01-.007-.308z" class="prefix__cls-1" data-name="Path 267" transform="translate(-.012 -168.143)"/>
    </g>
</svg>
