<svg xmlns="http://www.w3.org/2000/svg" xmlns:xlink="http://www.w3.org/1999/xlink" width="17" height="17" viewBox="0 0 17 17"><defs><style>.a,.c{fill:#3ac280;}.a{stroke:#707070;}.b{clip-path:url(#a);}</style><clipPath id="a"><rect class="a" width="17" height="17" transform="translate(49 168)"/></clipPath></defs><g class="b" transform="translate(-49 -168)"><g transform="translate(49 168)"><path d="M14.51,8.9H12.846a2.484,2.484,0,0,0-.654.088A2.492,2.492,0,0,0,9.971,7.626H7.029A2.492,2.492,0,0,0,4.809,8.991,2.484,2.484,0,0,0,4.154,8.9H2.49A2.493,2.493,0,0,0,0,11.394v2.66a1.5,1.5,0,0,0,1.494,1.494H15.506A1.5,1.5,0,0,0,17,14.054v-2.66A2.493,2.493,0,0,0,14.51,8.9ZM4.539,10.116v4.436H1.494a.5.5,0,0,1-.5-.5v-2.66A1.5,1.5,0,0,1,2.49,9.9H4.154a1.489,1.489,0,0,1,.391.052C4.541,10.006,4.539,10.061,4.539,10.116Zm6.926,4.436H5.535V10.116A1.5,1.5,0,0,1,7.029,8.622H9.971a1.5,1.5,0,0,1,1.494,1.494Zm4.539-.5a.5.5,0,0,1-.5.5H12.461V10.116c0-.055,0-.11-.006-.165a1.491,1.491,0,0,1,.391-.052H14.51A1.5,1.5,0,0,1,16,11.394Z"/><path d="M3.322,4.2A2.213,2.213,0,1,0,5.535,6.413,2.215,2.215,0,0,0,3.322,4.2Zm0,3.43A1.217,1.217,0,1,1,4.539,6.413,1.218,1.218,0,0,1,3.322,7.63Z"/><path d="M8.5,1.452a2.956,2.956,0,1,0,2.956,2.956A2.96,2.96,0,0,0,8.5,1.452Zm0,4.917a1.96,1.96,0,1,1,1.96-1.96A1.962,1.962,0,0,1,8.5,6.369Z"/><path d="M13.678,4.2a2.213,2.213,0,1,0,2.213,2.213A2.215,2.215,0,0,0,13.678,4.2Zm0,3.43a1.217,1.217,0,1,1,1.217-1.217A1.218,1.218,0,0,1,13.678,7.63Z"/></g></g></svg>