<svg xmlns="http://www.w3.org/2000/svg" width="19.536" height="16.507" viewBox="0 0 19.536 16.507">
  <g id="User_Management_Red" data-name="User Management Red" transform="translate(0 -0.5)">
    <path id="Path_291" data-name="Path 291" d="M17.445,3.568H10.012L8.15,1.273A2.082,2.082,0,0,0,6.542.5H2.087A2.1,2.1,0,0,0,0,2.6v12.32a2.1,2.1,0,0,0,2.087,2.092H17.449a2.1,2.1,0,0,0,2.087-2.1V5.638A2.089,2.089,0,0,0,17.445,3.568ZM.864,14.911V2.6A1.238,1.238,0,0,1,2.087,1.364H6.542a1.212,1.212,0,0,1,.938.458L8.893,3.568H4.3A2.089,2.089,0,0,0,2.2,5.638v10.5H2.087A1.238,1.238,0,0,1,.864,14.911Zm17.8,0a1.24,1.24,0,0,1-1.223,1.232H3.068V5.638A1.225,1.225,0,0,1,4.3,4.432H17.445a1.221,1.221,0,0,1,1.223,1.206Zm0,0" transform="translate(0)" fill="#cc2727"/>
    <path id="Path_292" data-name="Path 292" d="M211.5,237.191h-.691a2.436,2.436,0,0,0-2.433,2.45v2a.419.419,0,0,0,.41.437h4.732a.437.437,0,0,0,.432-.437v-2A2.454,2.454,0,0,0,211.5,237.191Zm1.586,4.019h-3.846v-1.569a1.572,1.572,0,0,1,1.569-1.586h.691a1.587,1.587,0,0,1,1.586,1.586Zm0,0" transform="translate(-200.428 -227.66)" fill="#cc2727"/>
    <path id="Path_293" data-name="Path 293" d="M235.775,144.647a1.8,1.8,0,1,0-1.8-1.8A1.8,1.8,0,0,0,235.775,144.647Zm0-2.74a.938.938,0,1,1-.938.938A.937.937,0,0,1,235.775,141.907Zm0,0" transform="translate(-225.046 -135.18)" fill="#cc2727"/>
  </g>
</svg>
