<svg xmlns="http://www.w3.org/2000/svg" width="111" height="111" viewBox="0 0 111 111"><defs><style>.a{fill:#fff;stroke:#3ac280;stroke-width:4px;}.b{fill:#3ac280;}.c{stroke:none;}.d{fill:none;}</style></defs><g transform="translate(-404 -319)"><g class="a" transform="translate(404 319)"><circle class="c" cx="55.5" cy="55.5" r="55.5"/><circle class="d" cx="55.5" cy="55.5" r="53.5"/></g><g transform="translate(434 349)"><g transform="translate(0)"><path class="b" d="M43.216,32.73A25.218,25.218,0,0,0,33.6,26.7a14.635,14.635,0,1,0-16.561,0A25.355,25.355,0,0,0,0,50.631H3.956a21.36,21.36,0,0,1,42.72,0h3.956A25.15,25.15,0,0,0,43.216,32.73Zm-17.9-7.415A10.68,10.68,0,1,1,36,14.635,10.692,10.692,0,0,1,25.315,25.315Z" transform="translate(0)"/></g></g></g></svg>