<svg xmlns="http://www.w3.org/2000/svg" xmlns:xlink="http://www.w3.org/1999/xlink" width="12" height="12" viewBox="0 0 12 12">
  <defs>
    <clipPath id="clip-path">
      <rect id="Rectangle_779" data-name="Rectangle 779" width="12" height="12" transform="translate(1411 123)" fill="#b2b2b2" stroke="#707070" stroke-width="1"/>
    </clipPath>
  </defs>
  <g id="Mask_Group_16" data-name="Mask Group 16" transform="translate(-1411 -123)" clip-path="url(#clip-path)">
    <g id="business-and-trade" transform="translate(1411 122.955)">
      <path id="Path_1076" data-name="Path 1076" d="M6.515.935,1.02.1A.886.886,0,0,0,.31.3.894.894,0,0,0,0,.965V11.5a.5.5,0,0,0,.5.5H2.125V9.375A.873.873,0,0,1,3,8.5H4.25a.873.873,0,0,1,.875.875V12H7.25V1.8A.876.876,0,0,0,6.515.935ZM2.75,7.375H2a.375.375,0,0,1,0-.75h.75a.375.375,0,0,1,0,.75Zm0-1.5H2a.375.375,0,0,1,0-.75h.75a.375.375,0,0,1,0,.75Zm0-1.5H2a.375.375,0,0,1,0-.75h.75a.375.375,0,0,1,0,.75Zm0-1.5H2a.375.375,0,0,1,0-.75h.75a.375.375,0,0,1,0,.75Zm2.5,4.5H4.5a.375.375,0,0,1,0-.75h.75a.375.375,0,0,1,0,.75Zm0-1.5H4.5a.375.375,0,0,1,0-.75h.75a.375.375,0,0,1,0,.75Zm0-1.5H4.5a.375.375,0,0,1,0-.75h.75a.375.375,0,0,1,0,.75Zm0-1.5H4.5a.375.375,0,0,1,0-.75h.75a.375.375,0,0,1,0,.75Z" fill="#b2b2b2"/>
      <path id="Path_1077" data-name="Path 1077" d="M11.31,5.421,7.75,4.675V12h3.375A.876.876,0,0,0,12,11.125V6.276A.871.871,0,0,0,11.31,5.421ZM10.125,10.5h-.75a.375.375,0,0,1,0-.75h.75a.375.375,0,0,1,0,.75Zm0-1.5h-.75a.375.375,0,0,1,0-.75h.75a.375.375,0,0,1,0,.75Zm0-1.5h-.75a.375.375,0,0,1,0-.75h.75a.375.375,0,0,1,0,.75Z" fill="#b2b2b2"/>
    </g>
  </g>
</svg>
