<svg xmlns="http://www.w3.org/2000/svg" width="20" height="20" viewBox="0 0 20 20"><defs><style>.a{opacity:0.5;}</style></defs><g class="a"><g transform="translate(6.667)"><path d="M177.253,9.628a.834.834,0,0,0-.746-.461H174.84V.833a.833.833,0,0,0-1.667,0V9.167h-1.667a.833.833,0,0,0-.667,1.333l2.5,3.333c.011.014.027.019.039.033a.814.814,0,0,0,.193.161.859.859,0,0,0,.086.057.782.782,0,0,0,.7,0,.848.848,0,0,0,.085-.057.814.814,0,0,0,.193-.161c.011-.013.028-.018.039-.033l2.5-3.333A.832.832,0,0,0,177.253,9.628Z" transform="translate(-170.674)"/></g><g transform="translate(0 12.5)"><path d="M19.167,320a.833.833,0,0,0-.833.833v2.5a2.5,2.5,0,0,1-2.5,2.5H4.167a2.5,2.5,0,0,1-2.5-2.5v-2.5a.833.833,0,0,0-1.667,0v2.5A4.171,4.171,0,0,0,4.167,327.5H15.833A4.171,4.171,0,0,0,20,323.333v-2.5A.833.833,0,0,0,19.167,320Z" transform="translate(0 -320)"/></g></g></svg>