<svg xmlns="http://www.w3.org/2000/svg" width="7.565" height="8.009" viewBox="0 0 7.565 8.009"><defs><style>.a{fill:#49c78a;}</style></defs><g transform="translate(-1836.435 1210.009) rotate(180)"><g transform="translate(-1742.294 1201.999) rotate(90)"><path class="a" d="M4.005,101.706a.559.559,0,0,1-.4-.164L.165,98.1A.561.561,0,0,1,.958,97.3l3.047,3.047L7.052,97.3a.561.561,0,0,1,.793.793L4.4,101.542A.559.559,0,0,1,4.005,101.706Z" transform="translate(0)"/></g><g transform="translate(-1739.294 1201.999) rotate(90)"><path class="a" d="M4.005,101.706a.559.559,0,0,1-.4-.164L.165,98.1A.561.561,0,0,1,.958,97.3l3.047,3.047L7.052,97.3a.561.561,0,0,1,.793.793L4.4,101.542A.559.559,0,0,1,4.005,101.706Z" transform="translate(0)"/></g></g></svg>