<svg xmlns="http://www.w3.org/2000/svg" width="30.013" height="30.013" viewBox="0 0 30.013 30.013"><defs><style>.a{fill:#0a5169;}</style></defs><path class="a" d="M15.007,0A15.007,15.007,0,1,0,30.013,15.007,15.023,15.023,0,0,0,15.007,0Zm0,28.763A13.756,13.756,0,1,1,28.763,15.007,13.772,13.772,0,0,1,15.007,28.763Z"/><path class="a" d="M1.26-1.132H-.307A4.851,4.851,0,0,1,1.215-4.668q.179-.179.727-.694t.795-.783q.246-.269.6-.727a3.037,3.037,0,0,0,.5-.9,2.848,2.848,0,0,0,.145-.907,2.327,2.327,0,0,0-.862-1.936,3.59,3.59,0,0,0-2.294-.683q-2.753,0-3.4,2.261l-1.321-.739a4.247,4.247,0,0,1,1.779-2.25,5.415,5.415,0,0,1,2.943-.795,5.156,5.156,0,0,1,3.335,1.1A3.625,3.625,0,0,1,5.558-8.675,4.556,4.556,0,0,1,4.036-5.429q-.09.067-.526.481t-.571.56q-.134.145-.492.526a3.347,3.347,0,0,0-.492.627l-.336.616a2.722,2.722,0,0,0-.28.739A3.6,3.6,0,0,0,1.26-1.132Zm.448,3.246a1.188,1.188,0,0,1-.358.873,1.188,1.188,0,0,1-.873.358A1.188,1.188,0,0,1-.4,2.987a1.188,1.188,0,0,1-.358-.873A1.188,1.188,0,0,1-.4,1.241,1.188,1.188,0,0,1,.477.883a1.188,1.188,0,0,1,.873.358A1.188,1.188,0,0,1,1.708,2.114Z" transform="translate(14.075 19.418)"/></svg>