<svg xmlns="http://www.w3.org/2000/svg" width="11.387" height="11.387" viewBox="0 0 11.387 11.387">
	<defs>
		<style>
			.a{fill:#f44336;}.b{fill:#fafafa;}
		</style>
	</defs>
	<path class="a" d="M5.694,0a5.694,5.694,0,1,0,5.694,5.694A5.7,5.7,0,0,0,5.694,0Zm0,0" />
	<path class="b" d="M159.8,159.133a.474.474,0,1,1-.671.671l-1.426-1.426-1.426,1.426a.474.474,0,0,1-.671-.671l1.426-1.426-1.426-1.426a.474.474,0,0,1,.671-.671l1.426,1.426,1.426-1.426a.474.474,0,0,1,.671.671l-1.426,1.426Zm0,0" transform="translate(-152.014 -152.013)" />
</svg>
