<svg xmlns="http://www.w3.org/2000/svg" id="prefix__calendar_1_" width="20" height="20" data-name="calendar (1)" viewBox="0 0 20 20">
    <defs>
        <style>
            .prefix__cls-1{fill:#fff}
        </style>
    </defs>
    <g id="prefix__Group_505" data-name="Group 505">
        <g id="prefix__Group_504" data-name="Group 504">
            <path id="prefix__Path_563" d="M17.656 1.563h-.938V0h-1.562v1.563H4.844V0H3.281v1.563h-.937A2.346 2.346 0 000 3.906v13.75A2.346 2.346 0 002.344 20h15.312A2.346 2.346 0 0020 17.656V3.906a2.346 2.346 0 00-2.344-2.343zm.781 16.094a.782.782 0 01-.781.781H2.344a.782.782 0 01-.781-.781V7.344h16.875zm0-11.875H1.563V3.906a.782.782 0 01.781-.781h.938v1.563h1.562V3.125h10.312v1.563h1.562V3.125h.938a.782.782 0 01.781.781z" class="prefix__cls-1" data-name="Path 563"/>
        </g>
    </g>
    <g id="prefix__Group_507" data-name="Group 507" transform="translate(3.077 8.974)">
        <g id="prefix__Group_506" data-name="Group 506">
            <path id="prefix__Rectangle_515" d="M0 0H2V2H0z" class="prefix__cls-1" data-name="Rectangle 515" transform="translate(-.077 .026)"/>
        </g>
    </g>
    <g id="prefix__Group_509" data-name="Group 509" transform="translate(6.154 8.974)">
        <g id="prefix__Group_508" data-name="Group 508">
            <path id="prefix__Rectangle_516" d="M0 0H2V2H0z" class="prefix__cls-1" data-name="Rectangle 516" transform="translate(-.154 .026)"/>
        </g>
    </g>
    <g id="prefix__Group_511" data-name="Group 511" transform="translate(9.231 8.974)">
        <g id="prefix__Group_510" data-name="Group 510">
            <path id="prefix__Rectangle_517" d="M0 0H2V2H0z" class="prefix__cls-1" data-name="Rectangle 517" transform="translate(-.231 .026)"/>
        </g>
    </g>
    <g id="prefix__Group_513" data-name="Group 513" transform="translate(12.308 8.974)">
        <g id="prefix__Group_512" data-name="Group 512">
            <path id="prefix__Rectangle_518" d="M0 0H2V2H0z" class="prefix__cls-1" data-name="Rectangle 518" transform="translate(-.308 .026)"/>
        </g>
    </g>
    <g id="prefix__Group_515" data-name="Group 515" transform="translate(15.385 8.974)">
        <g id="prefix__Group_514" data-name="Group 514">
            <path id="prefix__Rectangle_519" d="M0 0H2V2H0z" class="prefix__cls-1" data-name="Rectangle 519" transform="translate(-.385 .026)"/>
        </g>
    </g>
    <g id="prefix__Group_517" data-name="Group 517" transform="translate(3.077 12.051)">
        <g id="prefix__Group_516" data-name="Group 516">
            <path id="prefix__Rectangle_520" d="M0 0H2V2H0z" class="prefix__cls-1" data-name="Rectangle 520" transform="translate(-.077 -.051)"/>
        </g>
    </g>
    <g id="prefix__Group_519" data-name="Group 519" transform="translate(6.154 12.051)">
        <g id="prefix__Group_518" data-name="Group 518">
            <path id="prefix__Rectangle_521" d="M0 0H2V2H0z" class="prefix__cls-1" data-name="Rectangle 521" transform="translate(-.154 -.051)"/>
        </g>
    </g>
    <g id="prefix__Group_521" data-name="Group 521" transform="translate(9.231 12.051)">
        <g id="prefix__Group_520" data-name="Group 520">
            <path id="prefix__Rectangle_522" d="M0 0H2V2H0z" class="prefix__cls-1" data-name="Rectangle 522" transform="translate(-.231 -.051)"/>
        </g>
    </g>
    <g id="prefix__Group_523" data-name="Group 523" transform="translate(12.308 12.051)">
        <g id="prefix__Group_522" data-name="Group 522">
            <path id="prefix__Rectangle_523" d="M0 0H2V2H0z" class="prefix__cls-1" data-name="Rectangle 523" transform="translate(-.308 -.051)"/>
        </g>
    </g>
    <g id="prefix__Group_525" data-name="Group 525" transform="translate(3.077 15.128)">
        <g id="prefix__Group_524" data-name="Group 524">
            <path id="prefix__Rectangle_524" d="M0 0H2V2H0z" class="prefix__cls-1" data-name="Rectangle 524" transform="translate(-.077 -.128)"/>
        </g>
    </g>
    <g id="prefix__Group_527" data-name="Group 527" transform="translate(6.154 15.128)">
        <g id="prefix__Group_526" data-name="Group 526">
            <path id="prefix__Rectangle_525" d="M0 0H2V2H0z" class="prefix__cls-1" data-name="Rectangle 525" transform="translate(-.154 -.128)"/>
        </g>
    </g>
    <g id="prefix__Group_529" data-name="Group 529" transform="translate(9.231 15.128)">
        <g id="prefix__Group_528" data-name="Group 528">
            <path id="prefix__Rectangle_526" d="M0 0H2V2H0z" class="prefix__cls-1" data-name="Rectangle 526" transform="translate(-.231 -.128)"/>
        </g>
    </g>
    <g id="prefix__Group_531" data-name="Group 531" transform="translate(12.308 15.128)">
        <g id="prefix__Group_530" data-name="Group 530">
            <path id="prefix__Rectangle_527" d="M0 0H2V2H0z" class="prefix__cls-1" data-name="Rectangle 527" transform="translate(-.308 -.128)"/>
        </g>
    </g>
    <g id="prefix__Group_533" data-name="Group 533" transform="translate(15.385 12.051)">
        <g id="prefix__Group_532" data-name="Group 532">
            <path id="prefix__Rectangle_528" d="M0 0H2V2H0z" class="prefix__cls-1" data-name="Rectangle 528" transform="translate(-.385 -.051)"/>
        </g>
    </g>
</svg>
